<svg id="Calque_1" data-name="Calque 1" xmlns="http://www.w3.org/2000/svg" width="754" height="994.09" viewBox="0 0 754 994.09"><defs><style>.cls-1{fill:#fff;}</style></defs><title>location_icon2</title><path class="cls-1" d="M766.57,114.37h0c-147.22-147.22-385.92-147.22-533.14,0h0a377,377,0,0,0-47.11,475.7L435.18,963.36c30.84,46.25,98.8,46.25,129.64,0L813.68,590.07A377,377,0,0,0,766.57,114.37ZM693.3,383.71C693.3,490.47,606.75,577,500,577h0c-106.75,0-193.3-86.54-193.3-193.3h0C306.7,277,393.25,190.42,500,190.42h0c106.75,0,193.3,86.54,193.3,193.29Z" transform="translate(-123 -3.95)"/></svg>