<svg id="Calque_1" data-name="Calque 1" xmlns="http://www.w3.org/2000/svg" width="752.41" height="992" viewBox="0 0 752.41 992"><defs><style>.cls-1{fill:#1a1d3d;}</style></defs><title>location_icon</title><path class="cls-1" d="M766,115.19h0C619.1-31.73,380.9-31.73,234,115.19h0a376.19,376.19,0,0,0-47,474.69l248.34,372.5c30.77,46.16,98.59,46.16,129.36,0L813,589.88A376.19,376.19,0,0,0,766,115.19ZM692.89,384c0,106.53-86.36,192.89-192.89,192.89h0c-106.53,0-192.89-86.36-192.89-192.89h0c0-106.53,86.36-192.89,192.89-192.89h0c106.53,0,192.89,86.36,192.89,192.89Z" transform="translate(-123.79 -5)"/></svg>