<svg id="Calque_1" data-name="Calque 1" xmlns="http://www.w3.org/2000/svg" width="748" height="986.18" viewBox="0 0 748 986.18"><defs><style>.cls-1{fill:#17202a;}</style></defs><title>location_icon</title><path class="cls-1" d="M764.45,117.45h0c-146.05-146-382.85-146-528.9,0h0a374,374,0,0,0-46.73,471.91L435.7,959.68c30.59,45.88,98,45.88,128.6,0L811.18,589.36A374,374,0,0,0,764.45,117.45ZM691.76,384.64C691.76,490.55,605.9,576.4,500,576.4h0c-105.9,0-191.76-85.85-191.76-191.76h0c0-105.9,85.86-191.75,191.76-191.75h0c105.9,0,191.76,85.85,191.76,191.75Z" transform="translate(-126 -7.91)"/></svg>