<svg id="Calque_1" data-name="Calque 1" xmlns="http://www.w3.org/2000/svg" width="753.93" height="994" viewBox="0 0 753.93 994"><defs><style>.cls-1{fill:#080a16;}</style></defs><title>location_icon</title><path class="cls-1" d="M813.65,590.06a377,377,0,0,0-47.1-475.65h0c-147.21-147.21-385.89-147.21-533.1,0h0a377,377,0,0,0-47.1,475.65L435.19,963.31c30.83,46.25,98.79,46.25,129.62,0M693.28,383.72C693.28,490.47,606.74,577,500,577h0c-106.74,0-193.28-86.53-193.28-193.28h0C306.72,277,393.26,190.44,500,190.44h0c106.74,0,193.28,86.54,193.28,193.28Z" transform="translate(-123.04 -4)"/></svg>